<?xml version="1.0" standalone="no"?>
<!DOCTYPE svg PUBLIC "-//W3C//DTD SVG 20010904//EN"
 "http://www.w3.org/TR/2001/REC-SVG-20010904/DTD/svg10.dtd">
<svg version="1.0" xmlns="http://www.w3.org/2000/svg"
 width="1918.000000pt" height="930.000000pt" viewBox="0 0 1918.000000 930.000000"
 preserveAspectRatio="xMidYMid meet">

<g transform="translate(0.000000,930.000000) scale(0.100000,-0.100000)"
fill="#000000" stroke="none">
<path d="M0 4650 l0 -4650 9590 0 9590 0 0 4650 0 4650 -9590 0 -9590 0 0
-4650z m2080 3946 c0 -168 -2 -195 -16 -200 -25 -10 -41 -7 -58 9 -13 14 -19
13 -49 -1 -46 -22 -95 -12 -135 27 -75 73 -66 188 19 251 34 26 102 27 128 4
21 -19 21 -19 21 36 0 30 3 58 7 61 3 4 24 7 45 7 l38 0 0 -194z m368 5 c2
-127 -1 -188 -9 -197 -15 -18 -54 -18 -72 1 -14 13 -19 13 -44 0 -53 -28 -108
-12 -156 45 -70 83 -27 220 78 249 31 8 45 7 69 -4 16 -8 31 -15 33 -15 1 0 3
22 3 48 0 27 3 52 7 56 4 4 25 6 48 4 l40 -3 3 -184z m150 0 c2 -127 -1 -188
-9 -197 -14 -17 -61 -18 -77 -2 -13 13 -18 369 -5 382 4 4 25 6 48 4 l40 -3 3
-184z m-1720 173 c52 -11 72 -38 72 -97 -1 -81 -16 -139 -40 -159 -18 -15 -41
-18 -122 -18 -109 0 -116 -4 -174 -85 -30 -43 -54 -29 -54 33 0 45 -2 49 -32
63 -33 14 -33 14 -36 95 -4 121 1 128 100 152 82 20 225 28 286 16z m292 -84
l0 -60 55 0 55 0 0 60 0 60 50 0 50 0 -2 -177 -3 -178 -24 -3 c-12 -2 -34 -1
-47 2 -22 6 -24 11 -24 76 l0 70 -55 0 -54 0 -3 -72 -3 -73 -40 0 -40 0 -3
178 -2 177 45 0 45 0 0 -60z m1694 -9 c44 -24 67 -61 69 -111 l2 -45 -105 -5
-105 -5 23 -22 c25 -26 55 -29 95 -8 25 13 30 12 47 -5 30 -30 24 -47 -22 -71
-129 -66 -271 69 -214 204 17 41 45 65 93 82 42 15 73 11 117 -14z m-1334 -60
c0 -44 4 -91 9 -104 12 -30 43 -42 70 -27 18 9 21 22 23 108 l3 97 45 0 45 0
3 -147 3 -147 -26 -7 c-27 -7 -55 9 -55 32 0 10 -6 8 -20 -6 -24 -24 -62 -34
-97 -26 -35 9 -79 58 -87 97 -8 42 -8 194 1 202 3 4 24 7 45 7 l38 0 0 -79z
m1525 -1841 l0 -75 -669 -3 c-486 -1 -673 1 -682 9 -18 14 -19 120 -2 137 9 9
169 12 683 10 l670 -3 0 -75z m4280 55 c0 -6 -44 -11 -107 -13 -93 -2 -108 0
-108 13 0 13 15 15 108 13 63 -2 107 -7 107 -13z m5 -55 c0 -6 -43 -10 -110
-10 -67 0 -110 4 -110 10 0 6 43 10 110 10 67 0 110 -4 110 -10z m-7 -55 c-4
-16 -205 -13 -211 3 -3 10 20 12 105 10 65 -2 107 -7 106 -13z m447 -655 l0
-490 -850 0 c-923 0 -894 2 -938 -55 -20 -26 -22 -39 -22 -176 l0 -149 1095 0
1095 0 0 -1531 0 -1531 -34 -34 -34 -34 -1025 0 -1025 0 -31 26 c-17 14 -35
42 -41 62 -6 22 -10 178 -10 385 l0 347 -2330 0 c-2576 0 -2369 -5 -2410 63
-20 31 -20 64 -20 1820 l0 1787 3290 0 3290 0 0 -490z m1841 90 c41 -22 11
-78 -36 -66 -30 8 -35 49 -7 65 21 13 20 13 43 1z m3640 0 c29 -16 25 -58 -6
-66 -46 -11 -77 42 -37 65 21 13 20 13 43 1z m-3521 -175 l0 -175 -35 0 -35 0
0 168 c0 93 3 172 7 175 3 4 19 7 35 7 l28 0 0 -175z m300 0 l0 -175 -35 0
c-21 0 -35 5 -35 12 0 9 -3 9 -12 0 -7 -7 -36 -12 -65 -12 -44 0 -58 5 -85 29
-28 25 -32 35 -36 93 -4 58 -2 67 23 96 33 39 93 58 137 43 17 -6 33 -11 34
-11 2 0 4 23 4 50 l0 50 35 0 35 0 0 -175z m460 126 l0 -49 39 10 c33 8 47 7
78 -8 52 -26 63 -53 63 -161 l0 -93 -35 0 -35 0 0 89 c0 68 -4 93 -16 105 -19
20 -44 20 -70 2 -16 -12 -20 -29 -22 -105 l-4 -91 -29 0 -29 0 0 175 0 175 30
0 c29 0 30 -1 30 -49z m-1306 18 c13 -6 32 -26 42 -45 17 -32 17 -35 1 -69
-16 -33 -16 -38 -2 -58 24 -35 19 -90 -11 -118 -23 -21 -36 -24 -120 -27 l-94
-4 0 166 0 166 80 0 c43 0 90 -5 104 -11z m1221 -19 c0 -22 -5 -25 -42 -28
l-43 -3 0 -135 0 -134 -35 0 -35 0 0 135 0 135 -40 0 c-38 0 -40 2 -40 30 l0
31 118 -3 117 -3 0 -25z m918 16 c32 -13 87 -68 87 -87 0 -5 -16 -9 -35 -9
-26 0 -42 7 -58 26 -36 41 -111 35 -142 -12 -21 -33 -22 -107 -1 -139 32 -48
119 -51 148 -5 9 14 23 20 50 20 43 0 45 -4 19 -44 -30 -46 -70 -66 -129 -66
-107 0 -164 52 -170 155 -2 45 2 69 16 95 37 69 137 99 215 66z m2067 -26 c0
-29 1 -29 61 -32 l62 -3 28 -74 c15 -40 30 -75 32 -78 3 -2 17 32 33 77 l29
80 37 0 37 0 -75 -181 c-41 -100 -74 -183 -74 -185 0 -2 -16 -4 -36 -4 -25 0
-35 4 -31 13 2 6 13 35 22 63 l18 50 -38 97 c-38 96 -39 97 -72 97 l-33 0 0
-80 0 -80 30 0 c25 0 30 -4 30 -25 0 -23 -4 -25 -43 -25 -23 0 -53 7 -65 16
-20 14 -22 23 -22 105 0 72 -3 89 -15 89 -9 0 -15 9 -15 25 0 16 6 25 15 25
10 0 15 10 15 30 0 28 3 30 35 30 32 0 35 -2 35 -30z m-2488 -46 c33 -17 45
-38 54 -93 l7 -41 -103 0 -102 0 14 -22 c9 -13 27 -27 42 -32 22 -8 30 -6 54
17 33 32 82 37 82 10 -1 -46 -59 -83 -128 -83 -48 0 -58 4 -87 33 -43 43 -53
93 -30 153 29 77 112 101 197 58z m700 16 c70 -20 112 -102 89 -173 -18 -54
-53 -80 -114 -85 -97 -8 -147 39 -147 137 0 75 37 112 130 130 3 0 22 -4 42
-9z m311 -9 c20 -10 40 -15 42 -10 3 5 24 13 46 19 33 9 46 8 77 -7 51 -25 62
-53 62 -160 l0 -93 -35 0 -35 0 0 89 c0 112 -22 142 -81 111 -17 -9 -19 -22
-19 -105 l0 -95 -35 0 -35 0 0 83 c0 92 -15 127 -55 127 -40 0 -55 -35 -55
-127 l0 -83 -35 0 -35 0 0 130 0 130 50 -1 c28 -1 53 1 57 4 12 12 48 7 86
-12z m449 1 c29 -15 39 -16 52 -6 31 22 84 26 120 9 49 -23 61 -54 61 -159 l0
-91 -32 -3 -33 -3 0 83 c0 93 -15 128 -55 128 -40 0 -55 -35 -55 -127 l0 -83
-35 0 -35 0 0 89 c0 95 -11 121 -50 121 -39 0 -50 -26 -50 -121 l0 -89 -35 0
-35 0 0 130 0 129 58 4 c31 2 64 4 72 5 9 1 32 -6 52 -16z m755 -8 c34 -22 43
-54 43 -155 l0 -89 -35 0 -35 0 0 89 c0 68 -4 93 -16 105 -19 20 -44 20 -70 2
-16 -12 -20 -29 -22 -105 l-4 -91 -29 0 -29 0 0 130 0 130 50 -1 c28 -1 54 2
58 5 10 10 61 -1 89 -20z m-3777 -71 c0 -98 4 -109 41 -118 46 -11 59 14 59
116 l0 89 35 0 35 0 0 -129 0 -129 -91 -1 c-88 0 -92 1 -120 29 -28 28 -29 31
-29 129 l0 101 35 0 35 0 0 -87z m280 -43 l0 -130 -35 0 -35 0 0 130 0 130 35
0 35 0 0 -130z m3080 40 c0 -84 2 -91 25 -106 30 -20 63 -10 76 23 5 13 9 58
9 99 l0 74 35 0 35 0 0 -129 0 -129 -82 -1 c-145 -1 -168 22 -168 169 l0 90
35 0 35 0 0 -90z m570 -40 l0 -130 -35 0 -35 0 0 130 0 130 35 0 35 0 0 -130z
m-1529 -430 c29 -16 25 -58 -6 -66 -46 -11 -77 42 -37 65 21 13 20 13 43 1z
m127 -177 l2 -173 -35 0 -35 0 0 176 0 175 33 -3 32 -3 3 -172z m102 2 l0
-175 -30 0 -30 0 0 175 0 175 30 0 30 0 0 -175z m-2894 85 l31 -65 34 68 c32
65 34 67 71 67 l38 0 -55 -110 c-47 -93 -55 -118 -55 -165 0 -54 0 -55 -30
-55 -30 0 -30 1 -30 55 0 47 -8 71 -52 158 -29 56 -54 106 -56 110 -2 5 13 7
34 5 37 -3 41 -6 70 -68z m1232 43 c-3 -27 -5 -28 -70 -31 l-68 -3 0 -39 0
-40 55 0 c52 0 55 -1 55 -25 0 -24 -3 -25 -55 -25 l-55 0 0 -70 0 -70 -30 0
-30 0 0 165 0 165 101 0 100 0 -3 -27z m1020 -75 c13 -54 27 -98 31 -98 4 0
13 21 19 48 41 154 41 152 77 152 32 0 35 -3 46 -42 6 -24 19 -72 29 -108 l17
-65 11 40 c6 22 19 70 28 108 18 66 19 67 51 67 21 0 33 -5 33 -13 0 -7 -20
-80 -44 -163 l-43 -149 -35 -3 -34 -3 -31 103 -30 103 -27 -90 c-15 -49 -29
-96 -31 -102 -2 -7 -20 -13 -39 -13 l-34 0 -42 152 c-23 83 -44 158 -47 166
-4 10 3 13 33 10 l38 -3 24 -97z m872 -38 l0 -140 55 0 c52 0 55 -1 55 -25 0
-25 -1 -25 -90 -25 l-90 0 0 165 0 165 35 0 35 0 0 -140z m-5322 91 c9 -5 12
-26 10 -67 l-3 -59 -350 0 -350 0 -3 59 c-2 41 1 62 10 67 7 5 162 9 343 9
182 0 336 -4 343 -9z m1035 -16 c1 -6 -35 -11 -90 -13 -85 -3 -105 3 -86 22
11 10 173 2 176 -9z m1544 -21 c38 -24 57 -63 56 -114 -1 -84 -51 -130 -142
-130 -59 0 -103 31 -121 86 -41 123 97 227 207 158z m513 -9 c0 -32 -2 -35
-30 -35 -40 0 -50 -23 -50 -119 l0 -81 -35 0 -35 0 0 130 0 130 50 -1 c28 -1
53 1 57 4 3 4 15 7 25 7 14 0 18 -8 18 -35z m573 24 l47 2 0 -130 0 -131 -35
0 c-19 0 -35 5 -35 10 0 7 -6 7 -19 0 -11 -5 -40 -10 -65 -10 -105 0 -161 131
-94 223 19 25 87 48 123 41 17 -4 51 -6 78 -5z m300 -30 c26 -28 27 -34 27
-130 l0 -100 -32 3 -33 3 -3 89 c-3 96 -11 116 -48 116 -43 0 -54 -24 -54
-121 l0 -89 -35 0 -35 0 0 130 0 129 58 4 c92 6 124 -1 155 -34z m199 31 c39
-11 68 -42 68 -72 0 -27 -66 -25 -73 2 -3 13 -14 20 -30 20 -55 0 -41 -43 17
-54 83 -16 116 -91 59 -136 -39 -31 -137 -25 -164 9 -31 38 -25 61 16 61 24 0
35 -5 35 -15 0 -16 43 -31 59 -20 24 14 8 33 -41 51 -96 35 -115 108 -38 146
41 21 43 21 92 8z m1481 -17 c38 -19 61 -75 54 -132 -4 -36 -13 -52 -41 -78
-31 -28 -43 -33 -86 -33 -65 0 -108 22 -126 65 -57 138 65 247 199 178z m527
-2 c32 -23 50 -58 50 -98 l0 -33 -95 0 c-99 0 -110 -5 -75 -40 27 -27 56 -25
84 5 16 17 34 25 55 25 29 0 32 -3 26 -22 -4 -13 -20 -35 -36 -50 -25 -24 -38
-28 -85 -28 -62 0 -97 18 -120 61 -28 54 -13 143 30 179 40 32 121 33 166 1z
m-3440 -68 c0 -98 4 -109 41 -118 46 -11 59 14 59 116 l0 89 35 0 35 0 0 -129
0 -129 -91 -1 c-88 0 -92 1 -120 29 -28 28 -29 31 -29 129 l0 101 35 0 35 0 0
-87z m2150 -43 l0 -130 -35 0 -35 0 0 130 0 130 35 0 35 0 0 -130z m916 50
c16 -44 31 -80 34 -80 3 0 18 36 33 80 28 79 29 80 63 80 19 0 34 -3 34 -7 0
-3 -21 -62 -47 -129 l-48 -124 -35 0 -36 0 -51 130 -51 130 38 0 38 0 28 -80z
m-4761 40 c4 -6 -28 -10 -89 -10 -57 0 -96 4 -96 10 0 6 36 10 89 10 50 0 93
-4 96 -10z m5 -50 c0 -6 -38 -10 -95 -10 -57 0 -95 4 -95 10 0 6 38 10 95 10
57 0 95 -4 95 -10z m1360 -625 l0 -65 -35 0 c-28 0 -36 4 -41 24 -9 38 4 66
32 66 17 0 24 5 24 20 0 11 5 20 10 20 6 0 10 -28 10 -65z m100 0 l0 -65 -35
0 c-28 0 -36 4 -41 24 -9 38 4 66 32 66 17 0 24 5 24 20 0 11 5 20 10 20 6 0
10 -28 10 -65z m40 0 c0 -37 -4 -65 -10 -65 -6 0 -10 28 -10 65 0 37 4 65 10
65 6 0 10 -28 10 -65z m380 55 c0 -5 -4 -10 -10 -10 -5 0 -10 5 -10 10 0 6 5
10 10 10 6 0 10 -4 10 -10z m370 0 c0 -5 -7 -10 -16 -10 -8 0 -12 5 -9 10 3 6
10 10 16 10 5 0 9 -4 9 -10z m400 -9 c0 -14 8 -21 28 -23 24 -3 27 -7 30 -45
2 -26 -1 -43 -7 -43 -6 0 -11 16 -11 35 0 28 -4 35 -20 35 -16 0 -20 -7 -20
-35 0 -19 -4 -35 -10 -35 -6 0 -10 28 -10 65 0 37 4 65 10 65 6 0 10 -9 10
-19z m820 0 c0 -14 8 -21 28 -23 24 -3 27 -7 27 -43 0 -39 -1 -40 -37 -43
l-38 -3 0 65 c0 37 4 66 10 66 6 0 10 -9 10 -19z m195 9 c3 -5 -1 -10 -9 -10
-9 0 -16 5 -16 10 0 6 4 10 9 10 6 0 13 -4 16 -10z m35 -55 c0 -37 -4 -65 -10
-65 -6 0 -10 28 -10 65 0 37 4 65 10 65 6 0 10 -28 10 -65z m100 0 l0 -65 -35
0 c-28 0 -36 4 -41 24 -9 38 4 66 32 66 17 0 24 5 24 20 0 11 5 20 10 20 6 0
10 -28 10 -65z m750 55 c0 -5 -4 -10 -10 -10 -5 0 -10 5 -10 10 0 6 5 10 10
10 6 0 10 -4 10 -10z m100 0 c0 -5 -4 -10 -10 -10 -5 0 -10 5 -10 10 0 6 5 10
10 10 6 0 10 -4 10 -10z m610 -9 c0 -14 8 -21 28 -23 24 -3 27 -7 30 -45 2
-26 -1 -43 -7 -43 -6 0 -11 15 -11 34 0 19 -4 37 -9 41 -12 7 -31 -26 -31 -54
0 -12 -4 -21 -10 -21 -6 0 -10 28 -10 65 0 37 4 65 10 65 6 0 10 -9 10 -19z
m-4170 -11 c0 -15 7 -20 25 -20 18 0 25 5 25 20 0 11 7 20 15 20 12 0 15 -13
15 -60 0 -47 -3 -60 -15 -60 -10 0 -15 10 -15 30 0 25 -4 30 -25 30 -21 0 -25
-5 -25 -30 0 -16 -4 -30 -10 -30 -6 0 -10 27 -10 60 0 33 4 60 10 60 6 0 10
-9 10 -20z m3853 -6 l13 -25 12 25 c6 14 16 26 22 26 14 0 13 -5 -10 -42 -11
-18 -20 -43 -20 -55 0 -13 -4 -23 -10 -23 -5 0 -10 12 -10 28 -1 15 -7 38 -15
52 -17 30 -18 40 -5 40 5 0 15 -12 23 -26z m-2353 6 c0 -5 8 -11 18 -11 16 -1
16 -2 0 -6 -12 -3 -18 -14 -18 -33 0 -17 7 -34 18 -40 15 -9 14 -10 -8 -8 -21
3 -26 9 -30 44 -3 23 -4 46 -2 53 5 14 22 15 22 1z m2000 0 c0 -5 8 -11 18
-11 16 -1 16 -2 0 -6 -12 -3 -18 -14 -18 -33 0 -17 7 -34 18 -40 15 -9 14 -10
-8 -8 -21 3 -26 9 -30 44 -3 23 -4 46 -2 53 5 14 22 15 22 1z m-3380 -43 c0
-19 3 -37 7 -40 12 -13 33 15 33 44 0 16 5 29 10 29 6 0 10 -21 10 -46 l0 -45
-37 3 c-37 3 -38 4 -41 46 -2 25 1 42 7 42 6 0 11 -15 11 -33z m384 17 c11
-28 7 -34 -24 -34 -16 0 -30 -4 -30 -10 0 -5 14 -10 30 -10 17 0 30 -4 30 -10
0 -5 -15 -10 -34 -10 -39 0 -53 22 -42 66 5 18 13 24 35 24 17 0 31 -6 35 -16z
m116 6 c0 -5 -6 -10 -14 -10 -15 0 -26 -21 -26 -51 0 -10 -4 -19 -10 -19 -5 0
-10 20 -10 45 0 43 1 45 30 45 17 0 30 -4 30 -10z m79 -9 c7 -13 18 -17 36
-14 15 3 25 1 25 -6 0 -7 -21 -11 -55 -11 -30 0 -55 -4 -55 -10 0 -5 11 -10
25 -10 14 0 25 -5 25 -11 0 -6 -14 -9 -31 -7 -36 3 -51 30 -38 66 10 28 54 30
68 3z m91 -26 c0 -25 -4 -45 -10 -45 -5 0 -10 20 -10 45 0 25 5 45 10 45 6 0
10 -20 10 -45z m148 -2 c2 -26 -1 -43 -7 -43 -6 0 -11 16 -11 35 0 24 -5 35
-15 35 -10 0 -15 -11 -15 -35 0 -24 -5 -35 -15 -35 -10 0 -15 11 -15 35 0 24
-5 35 -15 35 -10 0 -15 -11 -15 -35 0 -19 -4 -35 -10 -35 -5 0 -10 20 -10 45
l0 46 63 -3 62 -3 3 -42z m90 0 c3 -43 3 -43 -32 -43 -19 0 -37 4 -40 9 -11
18 6 41 31 41 15 0 23 5 20 13 -2 6 -11 11 -20 9 -8 -1 -19 2 -22 8 -5 8 4 10
26 8 32 -3 34 -5 37 -45z m132 2 c0 -33 -4 -45 -15 -45 -11 0 -15 12 -16 43
-1 40 -1 41 -11 15 -6 -17 -17 -28 -29 -28 -10 0 -19 -4 -19 -10 0 -5 11 -10
24 -10 27 0 40 -22 23 -39 -6 -6 -25 -11 -43 -11 l-32 0 3 58 c2 31 4 60 4 65
1 4 26 7 56 7 l55 0 0 -45z m90 0 c0 -25 -4 -45 -10 -45 -5 0 -10 16 -10 35 0
24 -5 35 -15 35 -10 0 -15 -11 -15 -35 0 -24 -5 -35 -15 -35 -11 0 -15 12 -15
45 l0 45 40 0 40 0 0 -45z m94 29 c11 -28 7 -34 -24 -34 -16 0 -30 -4 -30 -10
0 -5 14 -10 30 -10 17 0 30 -4 30 -10 0 -5 -15 -10 -34 -10 -39 0 -53 22 -42
66 5 18 13 24 35 24 17 0 31 -6 35 -16z m76 5 c0 -6 -7 -9 -15 -6 -26 11 -25
-10 1 -22 36 -16 28 -45 -14 -49 -19 -2 -32 1 -32 8 0 7 8 9 19 5 29 -9 34 10
6 23 -15 7 -25 20 -25 32 0 16 7 20 30 20 17 0 30 -5 30 -11z m288 -16 c3 -20
-1 -23 -28 -23 -18 0 -29 -4 -25 -10 3 -5 17 -10 31 -10 13 0 24 -4 24 -10 0
-14 -54 -12 -68 2 -16 16 -15 51 0 66 21 21 63 10 66 -15z m77 0 l8 -28 6 24
c9 33 29 38 41 9 l9 -23 7 23 c3 12 11 22 16 22 12 0 1 -70 -12 -84 -11 -11
-30 1 -30 20 0 21 -17 17 -23 -6 -8 -32 -25 -23 -36 18 -13 45 -13 52 -2 52 5
0 12 -12 16 -27z m175 -18 c0 -45 0 -45 -36 -45 -31 0 -35 3 -32 23 2 14 11
23 26 25 13 2 21 9 19 15 -2 7 -11 11 -21 9 -9 -2 -16 2 -16 8 0 5 14 10 30
10 29 0 30 -2 30 -45z m40 18 l13 -28 9 28 c5 15 14 27 19 27 13 0 11 -12 -12
-74 -16 -40 -27 -56 -40 -56 -23 0 -24 9 -4 24 14 10 14 16 0 55 -18 51 -18
51 -7 51 5 0 15 -12 22 -27z m121 -4 l6 -24 8 28 c4 15 13 27 19 27 7 0 17
-12 23 -27 10 -25 11 -26 12 -6 1 20 17 40 26 31 2 -2 -1 -23 -7 -46 -12 -48
-32 -55 -43 -14 l-7 27 -10 -27 c-5 -16 -15 -28 -23 -28 -7 0 -15 12 -18 28
-3 15 -9 35 -13 46 -5 14 -3 17 7 14 7 -2 16 -15 20 -29z m177 4 c3 -20 -1
-23 -28 -23 -18 0 -29 -4 -25 -10 3 -5 17 -10 31 -10 13 0 24 -4 24 -10 0 -14
-54 -12 -68 2 -16 16 -15 51 0 66 21 21 63 10 66 -15z m184 -10 c2 -21 8 -38
13 -38 6 0 11 17 13 38 4 52 22 46 22 -8 0 -44 0 -45 -34 -45 -37 0 -46 12
-46 61 0 45 28 38 32 -8z m88 -8 c0 -25 -4 -45 -10 -45 -5 0 -10 20 -10 45 0
25 5 45 10 45 6 0 10 -20 10 -45z m270 35 c0 -5 -11 -10 -25 -10 -20 0 -25 -5
-25 -25 0 -20 5 -25 25 -25 14 0 25 -5 25 -11 0 -6 -14 -9 -32 -7 -35 3 -44
21 -34 64 5 19 13 24 36 24 17 0 30 -4 30 -10z m86 -14 c11 -43 -4 -68 -38
-64 -58 6 -57 88 1 88 24 0 32 -5 37 -24z m152 -23 c2 -26 -1 -43 -7 -43 -6 0
-11 16 -11 36 0 28 -3 35 -17 32 -12 -2 -19 -14 -21 -36 -4 -43 -22 -41 -22 3
0 24 -5 35 -15 35 -10 0 -15 -11 -15 -35 0 -19 -4 -35 -10 -35 -5 0 -10 20
-10 45 l0 46 63 -3 62 -3 3 -42z m142 1 c0 -24 -4 -44 -10 -44 -5 0 -10 16
-10 35 0 24 -5 35 -15 35 -10 0 -15 -11 -15 -35 0 -19 -4 -35 -10 -35 -5 0
-10 16 -10 35 0 24 -5 35 -15 35 -10 0 -15 -11 -15 -35 0 -24 -5 -35 -15 -35
-11 0 -15 12 -15 45 l0 44 65 0 65 -1 0 -44z m40 11 c0 -28 4 -35 20 -35 16 0
20 7 20 35 0 19 5 35 10 35 6 0 10 -21 10 -46 l0 -45 -37 3 c-37 3 -38 4 -41
46 -2 25 1 42 7 42 6 0 11 -16 11 -35z m158 -12 c2 -26 -1 -43 -7 -43 -6 0
-11 16 -11 35 0 28 -4 35 -20 35 -16 0 -20 -7 -20 -35 0 -19 -4 -35 -10 -35
-5 0 -10 21 -10 46 l0 45 38 -3 c36 -3 37 -4 40 -45z m42 2 c0 -25 -4 -45 -10
-45 -5 0 -10 20 -10 45 0 25 5 45 10 45 6 0 10 -20 10 -45z m100 0 c0 -25 -4
-45 -10 -45 -5 0 -10 20 -10 45 0 25 5 45 10 45 6 0 10 -20 10 -45z m88 18 c3
-19 -1 -23 -22 -23 -14 0 -26 -4 -26 -10 0 -5 11 -10 25 -10 14 0 25 -4 25
-10 0 -5 -14 -10 -30 -10 -38 0 -59 35 -40 69 16 30 64 26 68 -6z m82 16 c0
-6 -9 -9 -20 -6 -30 8 -33 -8 -4 -22 36 -16 28 -45 -14 -49 -19 -2 -32 1 -32
8 0 6 8 10 18 9 35 -3 36 2 8 24 -17 14 -26 29 -22 35 9 15 66 16 66 1z m261
-10 c16 -30 -3 -69 -34 -69 -29 0 -47 17 -47 45 0 45 60 63 81 24z m39 -14 c0
-28 4 -35 20 -35 16 0 20 7 20 35 0 19 5 35 10 35 6 0 10 -21 10 -46 l0 -45
-37 3 c-37 3 -38 4 -41 46 -2 25 1 42 7 42 6 0 11 -16 11 -35z m288 -12 c3
-43 3 -43 -32 -43 -19 0 -37 4 -40 9 -11 18 6 41 31 41 15 0 23 5 20 13 -2 6
-14 11 -25 9 -12 -2 -22 2 -22 8 0 7 13 10 33 8 30 -3 32 -6 35 -45z m38 22
c3 -14 10 -25 14 -25 4 0 11 11 14 25 6 24 26 35 26 15 0 -21 -29 -80 -40 -80
-11 0 -40 59 -40 80 0 20 20 9 26 -15z m134 6 c15 -28 13 -31 -20 -31 -16 0
-30 -4 -30 -10 0 -5 11 -10 25 -10 14 0 25 -5 25 -11 0 -6 -14 -9 -31 -7 -36
3 -51 30 -38 66 11 28 54 30 69 3z m-720 -61 c0 -5 -7 -10 -15 -10 -8 0 -15 5
-15 10 0 6 7 10 15 10 8 0 15 -4 15 -10z m-3460 -110 c0 -5 -4 -10 -10 -10 -5
0 -10 5 -10 10 0 6 5 10 10 10 6 0 10 -4 10 -10z m290 -9 c0 -14 8 -21 28 -23
24 -3 27 -7 27 -43 0 -39 -1 -40 -37 -43 l-38 -3 0 65 c0 37 4 66 10 66 6 0
10 -9 10 -19z m560 -46 l0 -65 -35 0 c-28 0 -36 4 -41 24 -9 38 4 66 32 66 17
0 24 5 24 20 0 11 5 20 10 20 6 0 10 -28 10 -65z m970 0 l0 -65 -35 0 c-28 0
-36 4 -41 24 -9 38 4 66 32 66 17 0 24 5 24 20 0 11 5 20 10 20 6 0 10 -28 10
-65z m45 55 c3 -5 -1 -10 -9 -10 -9 0 -16 5 -16 10 0 6 4 10 9 10 6 0 13 -4
16 -10z m1605 0 c0 -5 -4 -10 -10 -10 -5 0 -10 5 -10 10 0 6 5 10 10 10 6 0
10 -4 10 -10z m480 0 c0 -5 -7 -10 -15 -10 -8 0 -15 5 -15 10 0 6 7 10 15 10
8 0 15 -4 15 -10z m90 -9 c0 -14 8 -21 28 -23 24 -3 27 -7 30 -45 2 -26 -1
-43 -7 -43 -6 0 -11 15 -11 34 0 19 -4 37 -9 41 -12 7 -31 -26 -31 -54 0 -12
-4 -21 -10 -21 -6 0 -10 28 -10 65 0 37 4 65 10 65 6 0 10 -9 10 -19z m-1630
-1 c0 -5 -13 -10 -29 -10 -33 0 -47 -25 -36 -60 4 -14 15 -20 36 -20 16 0 29
-4 29 -10 0 -5 -16 -10 -35 -10 -24 0 -37 6 -45 19 -15 29 -12 67 6 85 17 18
74 22 74 6z m-1914 -15 c9 -8 11 -15 5 -15 -6 0 -11 -16 -11 -36 0 -21 4 -33
10 -29 6 3 10 1 10 -4 0 -22 -40 -11 -44 12 -11 49 -11 63 -1 74 13 16 14 16
31 -2z m2194 5 c0 -5 8 -11 18 -11 16 -1 16 -2 0 -6 -12 -3 -18 -14 -18 -33 0
-17 7 -34 18 -40 15 -9 14 -10 -8 -8 -21 3 -26 9 -30 44 -3 23 -4 46 -2 53 5
14 22 15 22 1z m720 0 c0 -5 8 -11 18 -11 16 -1 16 -2 0 -6 -12 -3 -18 -14
-18 -33 0 -17 7 -34 18 -40 15 -9 14 -10 -8 -8 -21 3 -25 9 -28 39 -3 35 -5
37 -30 30 -34 -9 -37 -45 -4 -49 29 -4 29 -22 -1 -22 -29 0 -47 18 -47 45 0
29 19 45 52 45 15 0 28 5 28 10 0 6 5 10 10 10 6 0 10 -4 10 -10z m586 -5 c9
-8 11 -15 5 -15 -6 0 -11 -13 -11 -30 0 -16 5 -30 10 -30 6 0 10 -4 10 -10 0
-5 -9 -10 -20 -10 -17 0 -20 7 -20 40 0 22 -4 40 -10 40 -5 0 -10 -18 -10 -40
0 -29 -4 -40 -15 -40 -11 0 -15 12 -16 43 l-1 42 -12 -40 c-13 -45 -37 -53
-47 -15 l-6 25 -8 -27 c-10 -39 -32 -35 -44 10 -13 46 -13 52 -1 52 5 0 13
-12 17 -27 l6 -28 10 28 c10 31 37 37 37 7 0 -11 5 -20 10 -20 6 0 10 9 10 20
0 17 7 20 40 20 22 0 40 5 40 10 0 14 9 12 26 -5z m-4258 -52 c3 -43 3 -43
-32 -43 -19 0 -37 4 -40 9 -11 18 6 41 31 41 15 0 23 5 20 13 -2 6 -11 11 -20
9 -8 -1 -19 2 -22 8 -5 8 4 10 26 8 32 -3 34 -5 37 -45z m78 22 c3 -14 10 -25
14 -25 4 0 11 11 14 25 6 23 26 36 26 16 0 -19 -31 -81 -40 -81 -9 0 -40 62
-40 81 0 20 20 7 26 -16z m140 1 c11 -43 -4 -68 -38 -64 -58 6 -57 88 1 88 24
0 32 -5 37 -24z m44 -21 c0 -25 -4 -45 -10 -45 -5 0 -10 20 -10 45 0 25 5 45
10 45 6 0 10 -20 10 -45z m80 35 c0 -5 -9 -10 -19 -10 -11 0 -21 -6 -24 -12
-7 -21 4 -38 24 -38 10 0 19 -4 19 -10 0 -5 -11 -10 -25 -10 -33 0 -52 38 -36
69 12 21 61 30 61 11z m84 -6 c11 -28 7 -34 -24 -34 -16 0 -30 -4 -30 -10 0
-5 14 -10 30 -10 17 0 30 -4 30 -10 0 -5 -15 -10 -34 -10 -39 0 -53 22 -42 66
5 18 13 24 35 24 17 0 31 -6 35 -16z m228 -21 c2 -21 8 -38 13 -38 6 0 11 17
13 38 4 52 22 46 22 -8 0 -44 0 -45 -34 -45 -37 0 -46 12 -46 61 0 45 28 38
32 -8z m228 26 c0 -6 -9 -8 -20 -4 -12 4 -20 2 -20 -5 0 -7 9 -14 20 -17 13
-3 20 -14 20 -29 0 -21 -5 -24 -35 -24 -19 0 -35 5 -35 11 0 6 9 9 20 6 30 -8
33 9 5 27 -31 21 -23 46 16 46 16 0 29 -5 29 -11z m88 -1 c7 -7 12 -21 12 -33
0 -47 -62 -63 -81 -21 -22 47 33 90 69 54z m237 -33 c0 -38 -2 -40 -32 -43
-35 -4 -50 20 -39 64 6 21 12 25 39 22 30 -3 32 -5 32 -43z m95 26 c15 -28 13
-31 -20 -31 -16 0 -30 -4 -30 -10 0 -5 11 -10 25 -10 14 0 25 -5 25 -11 0 -6
-14 -9 -31 -7 -36 3 -51 30 -38 66 11 28 54 30 69 3z m80 8 c0 -6 -9 -8 -20
-4 -12 4 -20 2 -20 -5 0 -7 9 -14 20 -17 13 -3 20 -14 20 -29 0 -21 -5 -24
-35 -24 -19 0 -35 5 -35 11 0 6 9 9 20 6 30 -8 33 9 5 27 -31 21 -23 46 16 46
16 0 29 -5 29 -11z m78 -16 l9 -28 13 28 c16 32 34 36 24 5 -22 -70 -32 -93
-47 -102 -23 -14 -34 1 -13 17 17 12 17 16 2 51 -18 44 -20 56 -7 56 5 0 14
-12 19 -27z m130 15 c7 -7 12 -21 12 -33 0 -47 -62 -63 -81 -21 -22 47 33 90
69 54z m42 -23 c0 -28 4 -35 20 -35 16 0 20 7 20 35 0 19 5 35 10 35 6 0 10
-21 10 -46 l0 -45 -37 3 c-37 3 -38 4 -41 46 -2 25 1 42 7 42 6 0 11 -16 11
-35z m140 25 c0 -5 -6 -10 -14 -10 -15 0 -26 -21 -26 -51 0 -10 -4 -19 -10
-19 -5 0 -10 20 -10 45 0 43 1 45 30 45 17 0 30 -4 30 -10z m118 -38 l3 -43
-38 3 c-30 2 -38 7 -38 23 0 14 8 21 28 23 16 2 26 8 24 15 -2 7 -14 11 -25 9
-12 -2 -22 2 -22 8 0 7 13 10 33 8 30 -3 32 -6 35 -46z m42 15 c0 -19 3 -37 7
-40 12 -13 33 15 33 44 0 16 5 29 10 29 6 0 10 -21 10 -46 l0 -45 -37 3 c-37
3 -38 4 -41 46 -2 25 1 42 7 42 6 0 11 -15 11 -33z m190 -12 c0 -25 -4 -45
-10 -45 -5 0 -10 20 -10 45 0 25 5 45 10 45 6 0 10 -20 10 -45z m94 29 c11
-28 7 -34 -24 -34 -16 0 -30 -4 -30 -10 0 -5 14 -10 30 -10 17 0 30 -4 30 -10
0 -5 -15 -10 -34 -10 -39 0 -53 22 -42 66 5 18 13 24 35 24 17 0 31 -6 35 -16z
m94 -31 c2 -26 -1 -43 -7 -43 -6 0 -11 16 -11 36 0 28 -3 35 -17 32 -12 -2
-19 -14 -21 -36 -5 -49 -22 -38 -22 14 l0 45 38 -3 c36 -3 37 -4 40 -45z m92
37 c0 -5 -11 -10 -25 -10 -20 0 -25 -5 -25 -25 0 -20 5 -25 25 -25 14 0 25 -5
25 -11 0 -6 -14 -9 -32 -7 -35 3 -44 21 -34 64 5 19 13 24 36 24 17 0 30 -4
30 -10z m78 -17 c3 -19 -1 -23 -22 -23 -14 0 -26 -4 -26 -10 0 -5 11 -10 25
-10 14 0 25 -4 25 -10 0 -5 -14 -10 -30 -10 -38 0 -59 35 -40 69 16 30 64 26
68 -6z m262 17 c0 -5 -6 -10 -14 -10 -15 0 -26 -21 -26 -51 0 -10 -4 -19 -10
-19 -5 0 -10 20 -10 45 0 43 1 45 30 45 17 0 30 -4 30 -10z m78 -17 c3 -19 -1
-23 -22 -23 -14 0 -26 -4 -26 -10 0 -5 11 -10 25 -10 14 0 25 -4 25 -10 0 -5
-14 -10 -30 -10 -38 0 -59 35 -40 69 16 30 64 26 68 -6z m90 -21 l3 -43 -38 3
c-30 2 -38 7 -38 23 0 14 8 21 28 23 16 2 26 8 24 15 -2 7 -14 11 -25 9 -12
-2 -22 2 -22 8 0 7 13 10 33 8 30 -3 32 -6 35 -46z m146 32 c11 -28 7 -34 -24
-34 -16 0 -30 -4 -30 -10 0 -5 14 -10 30 -10 17 0 30 -4 30 -10 0 -5 -15 -10
-34 -10 -39 0 -53 22 -42 66 5 18 13 24 35 24 17 0 31 -6 35 -16z m126 7 c0
-5 -10 -11 -22 -13 -15 -2 -23 -10 -23 -23 0 -13 8 -21 23 -23 29 -4 29 -22
-1 -22 -29 0 -47 18 -47 45 0 12 5 26 12 33 14 14 58 16 58 3z m85 -36 c0 -38
-2 -40 -32 -43 -35 -4 -50 20 -39 64 6 21 12 25 39 22 30 -3 32 -5 32 -43z
m103 -2 c2 -26 -1 -43 -7 -43 -6 0 -11 16 -11 35 0 28 -4 35 -20 35 -16 0 -20
-7 -20 -35 0 -19 -4 -35 -10 -35 -5 0 -10 21 -10 46 l0 45 38 -3 c36 -3 37 -4
40 -45z m92 2 c0 -25 -4 -45 -10 -45 -5 0 -10 16 -10 35 0 24 -5 35 -15 35
-10 0 -15 -11 -15 -35 0 -24 -5 -35 -15 -35 -11 0 -15 12 -15 45 l0 45 40 0
40 0 0 -45z m98 18 c3 -20 -1 -23 -28 -23 -18 0 -29 -4 -25 -10 3 -5 17 -10
31 -10 13 0 24 -4 24 -10 0 -14 -54 -12 -68 2 -16 16 -15 51 0 66 21 21 63 10
66 -15z m172 -18 c0 -25 -4 -45 -10 -45 -5 0 -10 20 -10 45 0 25 5 45 10 45 6
0 10 -20 10 -45z m88 33 c7 -7 12 -21 12 -33 0 -47 -62 -63 -81 -21 -22 47 33
90 69 54z m102 -33 c0 -25 -4 -45 -10 -45 -5 0 -10 16 -10 35 0 24 -5 35 -15
35 -10 0 -15 -11 -15 -35 0 -24 -5 -35 -15 -35 -11 0 -15 12 -15 45 l0 45 40
0 40 0 0 -45z m80 34 c0 -6 -7 -9 -15 -6 -26 11 -25 -10 1 -22 36 -16 28 -45
-14 -49 -19 -2 -32 1 -32 8 0 7 8 9 19 5 29 -9 34 10 6 23 -15 7 -25 20 -25
32 0 16 7 20 30 20 17 0 30 -5 30 -11z m-3537 -79 c-3 -11 -9 -20 -14 -20 -5
0 -9 9 -9 20 0 11 6 20 14 20 9 0 12 -7 9 -20z m2057 10 c0 -5 -4 -10 -10 -10
-5 0 -10 5 -10 10 0 6 5 10 10 10 6 0 10 -4 10 -10z m-635 -110 c3 -5 -1 -10
-9 -10 -9 0 -16 5 -16 10 0 6 4 10 9 10 6 0 13 -4 16 -10z m555 0 c0 -5 -4
-10 -10 -10 -5 0 -10 5 -10 10 0 6 5 10 10 10 6 0 10 -4 10 -10z m330 -55 l0
-65 -35 0 c-25 0 -37 6 -46 21 -16 31 3 69 36 69 18 0 25 5 25 20 0 11 5 20
10 20 6 0 10 -28 10 -65z m40 55 c0 -5 -7 -10 -16 -10 -8 0 -12 5 -9 10 3 6
10 10 16 10 5 0 9 -4 9 -10z m440 0 c0 -5 -4 -10 -10 -10 -5 0 -10 5 -10 10 0
6 5 10 10 10 6 0 10 -4 10 -10z m-3300 -57 l13 -28 9 28 c5 15 14 27 19 27 13
0 11 -12 -12 -74 -16 -40 -27 -56 -40 -56 -23 0 -24 9 -4 24 14 10 14 16 0 55
-18 51 -18 51 -7 51 5 0 15 -12 22 -27z m136 3 c11 -43 -4 -68 -38 -64 -58 6
-57 88 1 88 24 0 32 -5 37 -24z m44 -9 c0 -19 3 -37 7 -40 12 -13 33 15 33 44
0 16 5 29 10 29 6 0 10 -21 10 -46 l0 -45 -37 3 c-37 3 -38 4 -41 46 -2 25 1
42 7 42 6 0 11 -15 11 -33z m130 23 c0 -5 -7 -10 -15 -10 -10 0 -15 -11 -15
-35 0 -24 -5 -35 -15 -35 -11 0 -15 12 -15 45 0 43 1 45 30 45 17 0 30 -4 30
-10z m70 -25 c0 -28 4 -35 20 -35 16 0 20 7 20 35 0 19 5 35 10 35 6 0 10 -21
10 -46 l0 -45 -37 3 c-37 3 -38 4 -41 46 -2 25 1 42 7 42 6 0 11 -16 11 -35z
m140 24 c0 -6 -9 -8 -20 -4 -12 4 -20 2 -20 -5 0 -7 9 -14 20 -17 13 -3 20
-14 20 -29 0 -21 -5 -24 -35 -24 -19 0 -35 5 -35 11 0 6 9 9 20 6 30 -8 33 9
5 27 -31 21 -23 46 16 46 16 0 29 -5 29 -11z m88 -16 c3 -20 -1 -23 -28 -23
-18 0 -29 -4 -25 -10 3 -5 17 -10 31 -10 13 0 24 -4 24 -10 0 -14 -54 -12 -68
2 -16 16 -15 51 0 66 21 21 63 10 66 -15z m72 17 c0 -5 -7 -10 -15 -10 -10 0
-15 -11 -15 -35 0 -24 -5 -35 -15 -35 -11 0 -15 12 -15 45 0 43 1 45 30 45 17
0 30 -4 30 -10z m70 -1 c0 -6 -9 -8 -20 -4 -12 4 -20 2 -20 -5 0 -7 9 -14 20
-17 13 -3 20 -14 20 -29 0 -21 -5 -24 -35 -24 -19 0 -35 5 -35 11 0 6 9 9 20
6 30 -8 33 9 5 27 -31 21 -23 46 16 46 16 0 29 -5 29 -11z m128 -36 c3 -43 3
-43 -32 -43 -19 0 -37 4 -40 9 -11 18 6 41 31 41 15 0 23 5 20 13 -2 6 -11 11
-20 9 -8 -1 -19 2 -22 8 -5 8 4 10 26 8 32 -3 34 -5 37 -45z m82 36 c0 -6 -9
-9 -20 -6 -30 8 -33 -8 -4 -22 36 -16 28 -45 -14 -49 -19 -2 -32 1 -32 8 0 6
8 10 18 9 35 -3 36 2 8 24 -17 14 -26 29 -22 35 9 15 66 16 66 1z m75 -21 l7
-31 14 31 c24 59 34 33 11 -30 -18 -53 -26 -63 -47 -66 -22 -2 -23 -1 -7 8 21
13 22 36 2 84 -13 31 -13 36 -1 36 8 0 18 -14 21 -32z m136 11 c16 -30 -3 -69
-34 -69 -29 0 -47 17 -47 45 0 45 60 63 81 24z m39 -14 c0 -28 4 -35 20 -35
16 0 20 7 20 35 0 19 5 35 10 35 6 0 10 -21 10 -46 l0 -45 -37 3 c-37 3 -38 4
-41 46 -2 25 1 42 7 42 6 0 11 -16 11 -35z m194 19 c11 -28 7 -34 -24 -34 -16
0 -30 -4 -30 -10 0 -5 14 -10 30 -10 17 0 30 -4 30 -10 0 -5 -15 -10 -34 -10
-39 0 -53 22 -42 66 5 18 13 24 35 24 17 0 31 -6 35 -16z m94 -31 c2 -26 -1
-43 -7 -43 -6 0 -11 16 -11 36 0 28 -3 35 -17 32 -12 -2 -19 -14 -21 -36 -5
-49 -22 -38 -22 14 l0 45 38 -3 c36 -3 37 -4 40 -45z m93 20 c-5 -18 -15 -29
-29 -31 -30 -5 -28 -22 2 -22 29 0 39 -12 30 -34 -6 -16 -69 -23 -77 -8 -3 4
-2 33 0 65 l5 57 38 0 c37 0 38 -1 31 -27z m87 -21 l3 -43 -38 3 c-30 2 -38 7
-38 23 0 14 8 21 28 23 16 2 26 8 24 15 -2 7 -14 11 -25 9 -12 -2 -22 2 -22 8
0 7 13 10 33 8 30 -3 32 -6 35 -46z m84 22 c-3 -15 -13 -29 -23 -31 -28 -8
-23 -23 7 -23 21 0 25 -4 22 -22 -2 -18 -11 -24 -37 -26 -39 -4 -60 10 -44 30
6 7 9 27 7 43 -5 45 2 55 39 55 32 0 34 -2 29 -26z m92 10 c11 -28 7 -34 -24
-34 -16 0 -30 -4 -30 -10 0 -5 14 -10 30 -10 17 0 30 -4 30 -10 0 -5 -15 -10
-34 -10 -39 0 -53 22 -42 66 5 18 13 24 35 24 17 0 31 -6 35 -16z m76 -29 c0
-25 -4 -45 -10 -45 -5 0 -10 20 -10 45 0 25 5 45 10 45 6 0 10 -20 10 -45z
m100 0 c0 -25 -4 -45 -10 -45 -5 0 -10 16 -10 35 0 24 -5 35 -15 35 -10 0 -15
-11 -15 -35 0 -24 -5 -35 -15 -35 -11 0 -15 12 -15 45 l0 45 40 0 40 0 0 -45z
m132 19 c-3 -15 -13 -29 -23 -31 -26 -7 -24 -21 4 -25 14 -2 22 -10 22 -23 0
-15 -8 -21 -34 -23 -39 -4 -60 10 -44 30 6 7 9 27 7 43 -5 45 2 55 39 55 32 0
34 -2 29 -26z m88 7 c15 -28 13 -31 -20 -31 -16 0 -30 -4 -30 -10 0 -5 11 -10
25 -10 14 0 25 -5 25 -11 0 -6 -14 -9 -31 -7 -36 3 -51 30 -38 66 11 28 54 30
69 3z m98 -28 c2 -26 -1 -43 -7 -43 -6 0 -11 16 -11 35 0 28 -4 35 -20 35 -16
0 -20 -7 -20 -35 0 -19 -4 -35 -10 -35 -5 0 -10 21 -10 46 l0 45 38 -3 c36 -3
37 -4 40 -45z m42 14 c0 -19 3 -37 7 -40 12 -13 33 15 33 44 0 16 5 29 10 29
6 0 10 -21 10 -46 l0 -45 -37 3 c-37 3 -38 4 -41 46 -2 25 1 42 7 42 6 0 11
-15 11 -33z m100 -12 c0 -25 -4 -45 -10 -45 -5 0 -10 20 -10 45 0 25 5 45 10
45 6 0 10 -20 10 -45z m98 -2 c2 -26 -1 -43 -7 -43 -6 0 -11 16 -11 35 0 28
-4 35 -20 35 -16 0 -20 -7 -20 -35 0 -19 -4 -35 -10 -35 -5 0 -10 21 -10 46
l0 45 38 -3 c36 -3 37 -4 40 -45z m90 20 c3 -20 -1 -23 -28 -23 -18 0 -29 -4
-25 -10 3 -5 17 -10 31 -10 13 0 24 -4 24 -10 0 -14 -54 -12 -68 2 -16 16 -15
51 0 66 21 21 63 10 66 -15z m182 -18 c0 -33 -4 -45 -15 -45 -11 0 -15 12 -15
45 0 33 4 45 15 45 11 0 15 -12 15 -45z m75 34 c-4 -6 -13 -8 -21 -5 -25 10
-24 -11 2 -23 36 -16 28 -45 -14 -49 -19 -2 -32 1 -32 8 0 7 8 9 19 5 30 -9
36 14 7 25 -25 9 -34 29 -19 43 11 12 65 8 58 -4z m80 1 c-3 -5 -15 -10 -26
-10 -14 0 -19 -7 -19 -25 0 -18 5 -25 20 -25 11 0 20 -5 20 -11 0 -19 -52 -5
-60 16 -13 35 6 65 40 65 18 0 29 -4 25 -10z m35 -23 c0 -19 3 -37 7 -40 12
-13 33 15 33 44 0 16 5 29 10 29 6 0 10 -21 10 -46 l0 -45 -37 3 c-37 3 -38 4
-41 46 -2 25 1 42 7 42 6 0 11 -15 11 -33z m135 22 c-4 -6 -13 -8 -21 -5 -25
10 -24 -11 2 -23 36 -16 28 -45 -14 -49 -19 -2 -32 1 -32 8 0 7 8 9 19 5 30
-9 36 14 7 25 -25 9 -34 29 -19 43 11 12 65 8 58 -4z m75 0 c0 -6 -7 -9 -15
-6 -26 11 -25 -10 1 -22 36 -16 28 -45 -14 -49 -19 -2 -32 1 -32 8 0 7 8 9 19
5 29 -9 34 10 6 23 -15 7 -25 20 -25 32 0 16 7 20 30 20 17 0 30 -5 30 -11z
m40 -34 c0 -25 -4 -45 -10 -45 -5 0 -10 20 -10 45 0 25 5 45 10 45 6 0 10 -20
10 -45z m96 21 c11 -43 -4 -68 -38 -64 -58 6 -57 88 1 88 24 0 32 -5 37 -24z
m94 -21 c0 -25 -4 -45 -10 -45 -5 0 -10 16 -10 35 0 24 -5 35 -15 35 -10 0
-15 -11 -15 -35 0 -24 -5 -35 -15 -35 -11 0 -15 12 -15 45 l0 45 40 0 40 0 0
-45z m50 -35 c0 -5 -7 -10 -15 -10 -8 0 -15 5 -15 10 0 6 7 10 15 10 8 0 15
-4 15 -10z m-2095 -179 c77 -36 125 -111 125 -196 0 -85 -48 -160 -125 -196
-38 -17 -78 -19 -673 -19 -550 0 -638 2 -670 16 -172 71 -176 317 -7 395 38
17 78 19 675 19 597 0 637 -2 675 -19z m6763 -2420 c77 -39 112 -101 112 -196
0 -129 -80 -215 -200 -215 -120 0 -200 86 -200 215 0 95 35 156 115 198 42 23
127 21 173 -2z m590 4 c80 -34 122 -102 122 -200 0 -98 -42 -166 -122 -200
-72 -30 -171 -13 -227 38 -77 72 -82 235 -8 316 52 56 159 77 235 46z m590 -4
c74 -38 102 -91 102 -196 0 -138 -68 -215 -190 -215 -122 0 -190 77 -190 215
0 105 28 157 105 198 42 22 127 21 173 -2z m-1228 -793 l0 -73 -32 -2 c-38 -3
-58 12 -58 43 0 32 28 57 56 50 21 -6 24 -3 24 24 0 16 2 30 5 30 3 0 5 -33 5
-72z m-1110 -11 c12 -32 20 -60 17 -63 -3 -3 -8 4 -12 15 -9 31 -68 29 -83 -1
-6 -13 -11 -17 -11 -8 0 8 9 33 19 55 14 30 18 33 14 13 -6 -25 -3 -28 20 -28
14 0 26 4 26 10 0 19 -23 59 -31 54 -11 -6 -12 10 -2 20 10 9 17 -2 43 -67z
m695 18 c8 -30 17 -55 20 -55 2 0 11 25 20 56 9 31 19 53 23 50 3 -4 14 -30
22 -59 l17 -52 18 57 c10 32 21 56 23 53 7 -7 -30 -135 -40 -135 -10 0 -12 5
-29 70 l-12 45 -17 -53 c-9 -29 -20 -54 -25 -55 -8 -2 -28 46 -40 101 -11 52
2 36 20 -23z m-521 13 c8 -5 7 -8 -1 -8 -8 0 -13 -15 -13 -39 0 -22 5 -42 13
-44 7 -4 8 -6 1 -6 -20 -2 -33 23 -35 65 -3 43 11 80 19 54 3 -8 10 -18 16
-22z m320 0 c8 -5 7 -8 -1 -8 -8 0 -13 -15 -13 -39 0 -22 5 -42 13 -44 7 -4 8
-6 1 -6 -20 -2 -33 23 -35 65 -3 43 11 80 19 54 3 -8 10 -18 16 -22z m-402 -5
c-52 -10 -51 -76 1 -86 l22 -4 -22 -2 c-26 -1 -53 23 -53 49 0 26 27 50 53 49
21 -2 21 -2 -1 -6z m125 -70 c-2 -16 -4 -3 -4 27 0 30 2 43 4 28 2 -16 2 -40
0 -55z m74 7 c4 0 13 16 20 35 7 19 15 33 17 30 6 -6 -29 -95 -38 -95 -8 0
-41 80 -39 95 1 6 8 -7 16 -27 9 -21 19 -38 24 -38z m127 17 c2 -30 -1 -47 -6
-43 -6 3 -8 15 -5 26 3 13 0 20 -8 20 -12 0 -12 2 0 9 20 13 3 33 -21 25 -14
-4 -18 -3 -13 6 4 6 17 10 28 8 19 -3 22 -11 25 -51z m170 41 c23 -23 13 -38
-23 -38 -49 0 -42 -30 10 -43 15 -4 14 -5 -7 -6 -43 -2 -64 52 -32 83 19 19
36 20 52 4z m289 -65 c-2 -16 -4 -3 -4 27 0 30 2 43 4 28 2 -16 2 -40 0 -55z
m113 57 c13 -20 13 -80 0 -80 -5 0 -10 18 -10 39 0 69 -45 63 -53 -7 -3 -31
-4 -29 -5 13 -2 50 -2 51 28 50 17 0 35 -7 40 -15z m240 1 c14 -27 13 -47 -6
-65 -30 -31 -84 -9 -84 34 0 45 69 69 90 31z m45 -11 c10 -43 23 -46 31 -5 8
43 20 45 29 5 9 -43 22 -45 29 -5 4 19 11 35 16 35 4 0 1 -22 -8 -50 -9 -27
-19 -50 -23 -50 -5 0 -11 16 -15 35 -7 40 -20 38 -29 -5 -9 -43 -19 -37 -37
20 -9 28 -12 50 -8 50 5 0 11 -13 15 -30z m185 21 c0 -5 -9 -7 -20 -4 -27 7
-27 -23 1 -32 31 -10 21 -49 -13 -53 -16 -2 -28 1 -28 6 0 6 8 8 19 5 30 -8
34 14 6 33 -39 25 -31 51 18 53 9 1 17 -3 17 -8z m-1090 -51 c-13 -9 -12 -12
4 -25 17 -13 17 -15 4 -15 -9 0 -20 5 -23 10 -9 15 2 40 17 40 9 0 9 -3 -2
-10z m-407 -147 c-27 -5 -40 -20 -46 -53 l-4 -25 -2 27 c-1 32 23 58 52 57
l22 -2 -22 -4z m404 1 c-3 -3 -12 -4 -19 -1 -8 3 -5 6 6 6 11 1 17 -2 13 -5z
m1278 -34 c4 -22 10 -40 15 -40 5 0 11 18 15 40 8 49 22 52 31 5 9 -50 21 -52
29 -5 4 22 11 40 15 40 5 0 3 -21 -5 -47 -8 -27 -15 -51 -15 -55 0 -5 -4 -8
-9 -8 -5 0 -12 16 -15 35 -4 19 -11 35 -15 35 -5 0 -12 -16 -15 -35 -4 -19
-10 -35 -15 -35 -4 0 -15 25 -23 55 -8 30 -12 55 -8 55 5 0 11 -18 15 -40z
m315 -13 l0 -54 -32 1 c-31 1 -33 3 -33 36 0 32 3 35 28 35 19 -1 27 4 27 17
0 10 2 18 5 18 3 0 5 -24 5 -53z m-1797 -11 c1 -25 -1 -46 -4 -46 -8 0 -16 73
-11 90 7 21 14 2 15 -44z m195 8 c32 -27 24 -55 -15 -53 l-28 2 28 4 c34 5 35
26 2 47 -14 9 -25 24 -24 34 0 14 2 14 6 2 3 -8 17 -24 31 -36z m144 -1 c-2
-21 3 -40 10 -44 10 -7 9 -9 -3 -9 -12 0 -18 11 -21 39 -4 43 0 66 10 56 3 -3
5 -22 4 -42z m57 19 c-14 -5 -11 -60 4 -65 7 -4 6 -6 -4 -6 -12 -1 -18 10 -21
38 -5 51 0 64 17 48 7 -7 9 -13 4 -15z m360 0 c-14 -5 -11 -60 4 -65 7 -3 5
-6 -5 -6 -14 -1 -18 7 -18 34 0 19 -5 35 -10 35 -7 0 -6 5 2 13 9 10 16 11 24
3 7 -6 8 -12 3 -14z m330 0 c-14 -5 -11 -60 4 -65 7 -3 5 -6 -5 -6 -14 -1 -18
7 -18 34 0 19 -5 35 -10 35 -7 0 -6 5 2 13 9 10 16 11 24 3 7 -6 8 -12 3 -14z
m240 0 c-14 -5 -11 -60 4 -65 7 -3 5 -6 -5 -6 -14 -1 -18 7 -18 34 0 19 -5 35
-10 35 -7 0 -6 5 2 13 9 10 16 11 24 3 7 -6 8 -12 3 -14z m-1421 -4 c17 -17
15 -43 -4 -59 -31 -26 -70 25 -44 56 15 18 32 19 48 3z m180 0 c17 -17 15 -43
-4 -59 -31 -26 -70 25 -44 56 15 18 32 19 48 3z m210 -11 c3 -12 -3 -17 -22
-17 -32 0 -34 -17 -3 -30 13 -5 16 -9 7 -9 -20 -1 -40 18 -40 39 0 38 51 53
58 17z m129 -39 c-2 -13 -4 -3 -4 22 0 25 2 35 4 23 2 -13 2 -33 0 -45z m90
17 l1 -40 -6 35 c-4 22 -13 35 -22 35 -9 0 -17 -13 -21 -35 l-6 -35 -2 41 c-1
39 1 41 27 40 24 -1 27 -5 29 -41z m93 5 c0 -48 -19 -73 -51 -67 -23 4 -23 4
4 6 33 1 36 18 5 23 -15 2 -24 11 -26 26 -6 39 5 53 38 50 27 -2 30 -5 30 -38z
m48 33 c-23 -6 -23 -19 -1 -31 20 -12 10 -42 -14 -41 -17 1 -17 2 0 6 22 6 22
19 0 31 -20 12 -10 42 14 41 17 -1 17 -2 1 -6z m190 -24 c2 -14 -4 -31 -12
-38 -22 -18 -56 -4 -56 23 0 49 62 64 68 15z m120 -10 c3 -34 1 -36 -25 -35
-39 1 -43 31 -6 44 l28 10 -25 11 -25 11 25 -3 c21 -2 25 -8 28 -38z m55 31
c-14 -6 -23 -18 -23 -30 0 -12 10 -25 23 -30 22 -10 22 -10 -3 -7 -44 4 -35
78 9 76 11 0 9 -3 -6 -9z m94 -52 c-2 -13 -4 -3 -4 22 0 25 2 35 4 23 2 -13 2
-33 0 -45z m48 30 l7 -33 14 33 c8 17 16 32 19 32 5 0 -22 -70 -30 -78 -3 -3
-7 1 -9 9 -3 8 -10 26 -15 42 -6 15 -7 27 -2 27 5 0 12 -15 16 -32z m113 -9
c3 -34 1 -36 -25 -35 -39 1 -43 31 -6 44 l28 10 -25 11 -25 11 25 -3 c21 -2
25 -8 28 -38z m130 18 c3 -12 -3 -17 -22 -17 -32 0 -34 -17 -3 -30 22 -10 22
-10 -3 -7 -29 2 -40 38 -19 63 16 19 43 14 47 -9z m209 -39 c-2 -13 -4 -3 -4
22 0 25 2 35 4 23 2 -13 2 -33 0 -45z m90 17 l1 -40 -6 35 c-4 22 -13 35 -22
35 -9 0 -17 -13 -21 -35 l-6 -35 -2 41 c-1 39 1 41 27 40 24 -1 27 -5 29 -41z
m181 14 c2 -14 -4 -31 -12 -38 -22 -18 -56 -4 -56 23 0 49 62 64 68 15z m35 9
c2 -13 8 -31 12 -40 4 -10 3 -18 -2 -18 -5 0 -14 18 -20 40 -5 22 -7 40 -3 40
4 0 10 -10 13 -22z m47 -9 c0 -10 5 -19 10 -19 6 0 10 -7 10 -15 0 -28 -18
-15 -26 18 -6 28 -8 29 -15 12 -4 -11 -8 -15 -8 -8 -2 20 11 43 20 37 5 -3 9
-14 9 -25z m33 11 c-3 -12 -8 -19 -11 -16 -5 6 5 36 12 36 2 0 2 -9 -1 -20z
m45 13 c-23 -6 -23 -19 -1 -31 20 -12 10 -42 -14 -41 -17 1 -17 2 0 6 22 6 22
19 0 31 -20 12 -10 42 14 41 17 -1 17 -2 1 -6z m-2218 -38 c0 -30 -23 -42 -53
-27 -19 9 -18 10 11 5 27 -5 32 -3 32 15 0 11 -6 23 -12 25 -8 3 -6 6 5 6 12
1 17 -7 17 -24z"/>
<path d="M1882 8597 c-43 -46 -17 -117 42 -117 64 0 92 74 46 120 -27 27 -62
25 -88 -3z"/>
<path d="M2241 8594 c-24 -31 -26 -43 -9 -79 22 -48 97 -46 117 3 31 75 -59
138 -108 76z"/>
<path d="M660 8745 c-136 -26 -134 -26 -140 -76 -3 -24 -3 -64 0 -89 5 -41 8
-45 35 -50 28 -5 30 -9 33 -53 l3 -47 32 42 c21 28 42 44 57 45 14 1 69 5 122
8 l97 7 10 30 c6 17 11 62 11 100 0 63 -2 69 -24 78 -46 17 -160 19 -236 5z
m-12 -77 c30 -30 -4 -77 -41 -57 -29 17 -15 69 18 69 6 0 16 -5 23 -12z m96
-4 c22 -21 3 -56 -27 -52 -28 4 -35 38 -11 55 22 16 19 16 38 -3z m97 0 c23
-20 7 -63 -23 -64 -9 0 -38 30 -38 40 0 10 28 40 37 40 4 0 14 -7 24 -16z"/>
<path d="M715 8640 c-3 -5 -1 -10 4 -10 6 0 11 5 11 10 0 6 -2 10 -4 10 -3 0
-8 -4 -11 -10z"/>
<path d="M810 8640 c0 -5 5 -10 10 -10 6 0 10 5 10 10 0 6 -4 10 -10 10 -5 0
-10 -4 -10 -10z"/>
<path d="M2759 8610 l-24 -19 53 -1 c54 0 67 11 33 30 -27 14 -35 13 -62 -10z"/>
<path d="M1726 4742 c-21 -4 -15 -31 21 -86 100 -155 298 -190 440 -77 48 37
115 142 101 156 -6 7 -530 13 -562 7z"/>
<path d="M6200 4386 c0 -23 59 -66 90 -66 31 0 90 43 90 66 0 11 -19 14 -90
14 -71 0 -90 -3 -90 -14z"/>
<path d="M6245 4188 c-72 -41 -66 -142 11 -174 29 -12 39 -12 68 0 32 13 66
58 66 86 0 7 -7 27 -15 45 -24 49 -84 69 -130 43z"/>
<path d="M1914 4126 c-163 -53 -253 -229 -198 -390 22 -64 100 -147 166 -177
140 -61 309 -4 381 129 109 200 -20 435 -247 448 -34 2 -79 -2 -102 -10z"/>
<path d="M6200 3444 c0 -19 27 -48 56 -60 29 -12 39 -12 68 0 29 12 56 41 56
60 0 3 -40 6 -90 6 -49 0 -90 -3 -90 -6z"/>
<path d="M6253 3245 c-40 -17 -67 -66 -58 -105 8 -38 59 -80 95 -80 36 0 87
42 95 79 16 74 -61 137 -132 106z"/>
<path d="M6200 2491 c0 -19 62 -61 90 -61 28 0 90 42 90 61 0 5 -40 9 -90 9
-49 0 -90 -4 -90 -9z"/>
<path d="M9862 6003 c-48 -41 -20 -143 38 -143 31 0 70 44 70 78 0 38 -35 82
-65 82 -12 0 -32 -8 -43 -17z"/>
<path d="M9080 6044 c0 -35 0 -35 41 -32 79 6 76 68 -2 68 -38 0 -39 -1 -39
-36z"/>
<path d="M9080 5905 c0 -44 1 -45 31 -45 46 0 69 16 69 49 0 32 -14 41 -66 41
-34 0 -34 0 -34 -45z"/>
<path d="M10796 6004 c-27 -27 -18 -34 44 -34 56 0 60 1 51 19 -18 33 -69 42
-95 15z"/>
<path d="M11532 6003 c-48 -41 -20 -143 38 -143 31 0 70 44 70 78 0 38 -35 82
-65 82 -12 0 -32 -8 -43 -17z"/>
<path d="M9345 5345 c-14 -13 -25 -33 -25 -44 0 -89 93 -123 126 -46 17 42 10
80 -19 100 -31 21 -54 19 -82 -10z"/>
<path d="M10413 5344 c-21 -21 -24 -32 -19 -62 15 -99 131 -91 131 8 0 32 -6
47 -24 61 -32 26 -57 24 -88 -7z"/>
<path d="M12410 5350 c-31 -31 -27 -93 6 -119 34 -27 50 -26 79 4 33 32 34 83
2 113 -29 27 -61 28 -87 2z"/>
<path d="M12942 5354 c-36 -25 -26 -34 38 -34 63 0 71 7 42 33 -23 21 -51 22
-80 1z"/>
<path d="M9234 4695 c-7 -18 3 -35 22 -35 8 0 14 10 14 25 0 27 -27 35 -36 10z"/>
<path d="M9334 4695 c-7 -18 3 -35 22 -35 8 0 14 10 14 25 0 27 -27 35 -36 10z"/>
<path d="M11400 4685 c0 -18 5 -25 20 -25 15 0 20 7 20 25 0 18 -5 25 -20 25
-15 0 -20 -7 -20 -25z"/>
<path d="M11674 4695 c-7 -18 3 -35 22 -35 8 0 14 10 14 25 0 27 -27 35 -36
10z"/>
<path d="M9470 4700 c0 -5 9 -10 21 -10 11 0 17 5 14 10 -3 6 -13 10 -21 10
-8 0 -14 -4 -14 -10z"/>
<path d="M9676 4713 c-11 -11 -6 -23 9 -23 8 0 15 4 15 9 0 13 -16 22 -24 14z"/>
<path d="M10007 4673 c-12 -12 -7 -22 8 -17 8 4 15 10 15 15 0 11 -14 12 -23
2z"/>
<path d="M10090 4700 c0 -11 5 -20 10 -20 6 0 10 9 10 20 0 11 -4 20 -10 20
-5 0 -10 -9 -10 -20z"/>
<path d="M10088 4618 c9 -9 15 -9 24 0 9 9 7 12 -12 12 -19 0 -21 -3 -12 -12z"/>
<path d="M10310 4700 c0 -5 9 -10 21 -10 11 0 17 5 14 10 -3 6 -13 10 -21 10
-8 0 -14 -4 -14 -10z"/>
<path d="M10680 4705 c-10 -13 -9 -15 9 -15 11 0 21 4 21 9 0 18 -18 21 -30 6z"/>
<path d="M10935 4671 c-6 -11 9 -23 19 -14 9 9 7 23 -3 23 -6 0 -12 -4 -16 -9z"/>
<path d="M11270 4705 c-10 -13 -9 -15 9 -15 11 0 21 4 21 9 0 18 -18 21 -30 6z"/>
<path d="M11890 4685 c0 -18 5 -25 20 -25 15 0 20 7 20 25 0 18 -5 25 -20 25
-15 0 -20 -7 -20 -25z"/>
<path d="M12626 4713 c-11 -11 -6 -23 9 -23 8 0 15 4 15 9 0 13 -16 22 -24 14z"/>
<path d="M12954 4695 c-7 -18 14 -47 27 -39 5 3 9 16 9 30 0 27 -27 34 -36 9z"/>
<path d="M13297 4673 c-12 -12 -7 -22 8 -17 8 4 15 10 15 15 0 11 -14 12 -23
2z"/>
<path d="M13466 4713 c-11 -11 -6 -23 9 -23 8 0 15 4 15 9 0 13 -16 22 -24 14z"/>
<path d="M9620 4465 c0 -18 5 -25 20 -25 15 0 20 7 20 25 0 18 -5 25 -20 25
-15 0 -20 -7 -20 -25z"/>
<path d="M10124 4475 c-7 -18 3 -35 22 -35 8 0 14 10 14 25 0 27 -27 35 -36
10z"/>
<path d="M11094 4475 c-7 -18 3 -35 22 -35 8 0 14 10 14 25 0 27 -27 35 -36
10z"/>
<path d="M9027 4453 c-12 -12 -7 -22 8 -17 8 4 15 10 15 15 0 11 -14 12 -23 2z"/>
<path d="M9230 4465 c0 -18 5 -25 20 -25 15 0 20 7 20 25 0 18 -5 25 -20 25
-15 0 -20 -7 -20 -25z"/>
<path d="M9440 4480 c0 -5 9 -10 21 -10 11 0 17 5 14 10 -3 6 -13 10 -21 10
-8 0 -14 -4 -14 -10z"/>
<path d="M9987 4476 c-3 -8 0 -22 7 -31 11 -15 13 -15 25 -1 15 18 8 46 -13
46 -7 0 -16 -6 -19 -14z"/>
<path d="M10220 4465 c0 -18 5 -25 20 -25 15 0 20 7 20 25 0 18 -5 25 -20 25
-15 0 -20 -7 -20 -25z"/>
<path d="M10326 4493 c-11 -11 -6 -23 9 -23 8 0 15 4 15 9 0 13 -16 22 -24 14z"/>
<path d="M10607 4476 c-3 -8 0 -22 7 -31 11 -15 13 -15 25 -1 15 18 8 46 -13
46 -7 0 -16 -6 -19 -14z"/>
<path d="M10912 4453 c-6 -2 -10 -9 -7 -13 7 -11 35 -2 35 11 0 10 -8 10 -28
2z"/>
<path d="M11230 4480 c0 -5 9 -10 21 -10 11 0 17 5 14 10 -3 6 -13 10 -21 10
-8 0 -14 -4 -14 -10z"/>
<path d="M11506 4493 c-11 -11 -6 -23 9 -23 8 0 15 4 15 9 0 13 -16 22 -24 14z"/>
<path d="M11846 4493 c-11 -11 -6 -23 9 -23 8 0 15 4 15 9 0 13 -16 22 -24 14z"/>
<path d="M11932 4453 c-6 -2 -10 -9 -7 -13 7 -11 35 -2 35 11 0 10 -8 10 -28
2z"/>
<path d="M12070 4480 c0 -5 9 -10 21 -10 11 0 17 5 14 10 -3 6 -13 10 -21 10
-8 0 -14 -4 -14 -10z"/>
<path d="M12280 4465 c0 -18 5 -25 20 -25 15 0 20 7 20 25 0 18 -5 25 -20 25
-15 0 -20 -7 -20 -25z"/>
<path d="M12580 4485 c-10 -13 -9 -15 9 -15 11 0 21 4 21 9 0 18 -18 21 -30 6z"/>
<path d="M12837 4476 c-3 -8 0 -22 7 -31 11 -15 13 -15 25 -1 15 18 8 46 -13
46 -7 0 -16 -6 -19 -14z"/>
<path d="M11781 4261 c-7 -13 -6 -23 2 -36 12 -15 14 -15 26 -2 9 12 10 21 1
36 -13 26 -17 26 -29 2z"/>
<path d="M9100 4245 c0 -18 5 -25 20 -25 15 0 20 7 20 25 0 18 -5 25 -20 25
-15 0 -20 -7 -20 -25z"/>
<path d="M9580 4265 c-10 -13 -9 -15 9 -15 11 0 21 4 21 9 0 18 -18 21 -30 6z"/>
<path d="M9857 4233 c-12 -12 -7 -22 8 -17 8 4 15 10 15 15 0 11 -14 12 -23 2z"/>
<path d="M10134 4255 c-7 -18 14 -47 27 -39 5 3 9 16 9 30 0 27 -27 34 -36 9z"/>
<path d="M10370 4260 c0 -5 9 -10 21 -10 11 0 17 5 14 10 -3 6 -13 10 -21 10
-8 0 -14 -4 -14 -10z"/>
<path d="M10565 4270 c-4 -6 -3 -16 3 -22 6 -6 12 -6 17 2 4 6 3 16 -3 22 -6
6 -12 6 -17 -2z"/>
<path d="M10557 4179 c8 -8 16 -8 30 0 16 9 14 10 -11 11 -22 0 -27 -3 -19
-11z"/>
<path d="M10652 4233 c-6 -2 -10 -9 -7 -13 7 -11 35 -2 35 11 0 10 -8 10 -28
2z"/>
<path d="M10735 4270 c-4 -6 -3 -16 3 -22 6 -6 12 -6 17 2 4 6 3 16 -3 22 -6
6 -12 6 -17 -2z"/>
<path d="M10730 4180 c0 -5 6 -10 14 -10 8 0 18 5 21 10 3 6 -3 10 -14 10 -12
0 -21 -4 -21 -10z"/>
<path d="M10820 4260 c0 -5 9 -10 21 -10 11 0 17 5 14 10 -3 6 -13 10 -21 10
-8 0 -14 -4 -14 -10z"/>
<path d="M11135 4270 c-4 -6 -3 -16 3 -22 6 -6 12 -6 17 2 4 6 3 16 -3 22 -6
6 -12 6 -17 -2z"/>
<path d="M11127 4179 c8 -8 16 -8 30 0 16 9 14 10 -11 11 -22 0 -27 -3 -19
-11z"/>
<path d="M11226 4273 c-11 -11 -6 -23 9 -23 8 0 15 4 15 9 0 13 -16 22 -24 14z"/>
<path d="M11650 4265 c-10 -13 -9 -15 9 -15 11 0 21 4 21 9 0 18 -18 21 -30 6z"/>
<path d="M12360 4245 c0 -18 5 -25 20 -25 15 0 20 7 20 25 0 18 -5 25 -20 25
-15 0 -20 -7 -20 -25z"/>
<path d="M9510 3883 c14 -3 29 -10 33 -17 6 -7 7 -6 4 4 -2 8 -16 16 -33 17
-25 1 -26 0 -4 -4z"/>
<path d="M9918 3878 c-8 -22 7 -91 20 -94 7 -1 8 0 2 3 -12 6 -13 70 -1 75 5
2 3 8 -4 15 -10 9 -15 9 -17 1z"/>
<path d="M9620 3860 c8 -5 20 -10 25 -10 6 0 3 5 -5 10 -8 5 -19 10 -25 10 -5
0 -3 -5 5 -10z"/>
<path d="M9710 3866 c0 -2 7 -7 16 -10 8 -3 12 -2 9 4 -6 10 -25 14 -25 6z"/>
<path d="M9749 3833 c-1 -21 0 -46 0 -56 3 -23 -27 -33 -53 -17 -20 11 -20 11
-4 -5 11 -12 24 -16 42 -11 24 6 26 10 26 66 0 65 -9 84 -11 23z"/>
<path d="M9793 3825 c0 -27 2 -38 4 -22 2 15 2 37 0 50 -2 12 -4 0 -4 -28z"/>
<path d="M9851 3867 c2 -1 13 -9 24 -17 19 -14 19 -14 6 3 -7 9 -18 17 -24 17
-6 0 -8 -1 -6 -3z"/>
<path d="M9982 3858 c-24 -24 -13 -38 26 -36 36 1 36 1 5 5 -18 2 -33 9 -33
14 0 16 29 22 45 9 9 -7 15 -8 15 -2 0 9 -22 22 -39 22 -4 0 -12 -5 -19 -12z"/>
<path d="M10072 3820 c1 -40 2 -41 5 -11 3 19 11 40 19 46 13 9 12 11 -5 11
-18 0 -21 -6 -19 -46z"/>
<path d="M9587 3853 c-11 -11 -8 -48 5 -61 14 -14 44 -16 52 -4 2 4 -7 8 -21
7 -14 0 -28 6 -30 13 -3 8 7 12 31 12 20 0 36 4 36 8 0 4 -16 6 -37 4 -30 -4
-35 -2 -30 12 7 17 5 20 -6 9z"/>
<path d="M9687 3853 c-22 -21 2 -74 33 -72 9 0 5 4 -9 10 -19 7 -22 15 -19 39
5 32 5 33 -5 23z"/>
<path d="M9831 3847 c-1 -10 9 -21 24 -27 33 -13 33 -34 -1 -27 -16 3 -22 1
-16 -5 14 -14 47 -5 47 12 0 8 -10 19 -22 25 -12 5 -24 16 -27 25 -3 11 -4 11
-5 -3z"/>
<path d="M9518 3843 c-16 -2 -28 -8 -28 -13 0 -5 6 -7 13 -4 7 2 19 -7 27 -21
7 -14 15 -23 18 -20 3 2 -1 11 -8 20 -10 12 -10 18 0 30 7 8 11 14 9 14 -2 -1
-16 -4 -31 -6z"/>
<path d="M9970 3801 c0 -13 30 -22 51 -16 11 4 19 11 19 17 0 6 -6 5 -16 -3
-12 -10 -20 -10 -35 -1 -10 7 -19 8 -19 3z"/>
<path d="M17083 1609 c-73 -22 -133 -109 -133 -194 0 -152 150 -247 281 -180
92 48 127 196 68 291 -43 70 -139 107 -216 83z m124 -121 c33 -31 32 -100 -2
-133 -35 -36 -55 -33 -55 9 0 19 6 37 13 39 9 4 8 8 -3 16 -13 9 -13 14 -2 32
12 18 11 20 -5 17 -10 -2 -19 -13 -21 -26 -2 -12 -10 -22 -18 -22 -8 0 -14 -4
-14 -10 0 -5 7 -10 15 -10 10 0 15 -11 15 -35 0 -42 -17 -45 -57 -11 -22 19
-28 33 -28 64 0 88 98 130 162 70z"/>
<path d="M17688 1610 c-91 -28 -143 -99 -143 -195 0 -156 155 -250 286 -173
125 73 127 271 4 343 -46 28 -108 38 -147 25z m138 -126 c-1 -8 -5 -17 -9 -20
-4 -4 -7 -17 -7 -30 0 -56 -81 -106 -145 -90 -30 8 -33 26 -5 26 20 0 20 1 4
25 -18 28 -30 95 -16 95 4 0 17 -7 28 -15 24 -18 54 -19 54 -1 0 18 16 24 61
24 24 -1 36 -6 35 -14z"/>
<path d="M18262 1606 c-130 -47 -166 -246 -61 -341 123 -111 299 -23 299 150
0 112 -81 203 -180 203 -14 0 -40 -5 -58 -12z m124 -110 c15 -12 19 -27 19
-75 0 -36 -5 -65 -13 -73 -8 -8 -37 -13 -73 -13 -74 0 -89 15 -89 91 0 43 4
56 22 68 28 20 108 21 134 2z"/>
<path d="M18280 1483 c-22 -9 -30 -24 -30 -59 0 -50 18 -66 75 -62 l50 3 3 48
c2 33 0 47 -7 42 -6 -3 -11 -19 -11 -35 0 -40 -32 -58 -66 -35 -13 8 -24 24
-24 34 0 26 35 55 60 48 13 -3 20 0 20 9 0 14 -40 18 -70 7z"/>
<path d="M18300 1419 c0 -14 5 -19 17 -17 26 5 29 38 4 38 -15 0 -21 -6 -21
-21z"/>
<path d="M17123 823 c-19 -7 -16 -60 3 -67 34 -13 59 35 32 62 -13 13 -16 13
-35 5z"/>
<path d="M16610 815 c-11 -13 -8 -15 20 -15 21 0 30 4 28 13 -7 18 -33 20 -48
2z"/>
<path d="M17243 823 c-18 -7 -16 -60 2 -67 8 -3 22 -3 30 0 20 8 19 60 -1 68
-9 3 -16 6 -17 5 -1 0 -8 -3 -14 -6z"/>
<path d="M17974 585 c-8 -21 2 -45 20 -45 7 0 16 7 20 15 8 21 -3 45 -20 45
-8 0 -17 -7 -20 -15z"/>
<path d="M16094 586 c-9 -24 4 -48 23 -44 12 2 18 12 18 28 0 29 -32 41 -41
16z"/>
<path d="M16274 586 c-9 -24 4 -48 23 -44 12 2 18 12 18 28 0 29 -32 41 -41
16z"/>
<path d="M16485 590 c-3 -5 3 -10 14 -10 12 0 21 5 21 10 0 6 -6 10 -14 10 -8
0 -18 -4 -21 -10z"/>
<path d="M16784 585 c-9 -21 1 -41 23 -47 18 -5 22 11 14 55 -2 13 -32 7 -37
-8z"/>
<path d="M17024 586 c-9 -24 4 -48 23 -44 12 2 18 12 18 28 0 29 -32 41 -41
16z"/>
<path d="M17155 559 c-4 -6 -4 -13 -1 -16 8 -8 36 5 36 17 0 13 -27 13 -35 -1z"/>
<path d="M17465 559 c-4 -6 -4 -13 -1 -16 8 -8 36 5 36 17 0 13 -27 13 -35 -1z"/>
<path d="M17595 590 c-3 -5 3 -10 14 -10 12 0 21 5 21 10 0 6 -6 10 -14 10 -8
0 -18 -4 -21 -10z"/>
<path d="M18064 586 c-9 -24 4 -48 23 -44 12 2 18 12 18 28 0 29 -32 41 -41
16z"/>
</g>
</svg>
